<svg width="30" height="30" fill="none" xmlns="http://www.w3.org/2000/svg"><path d="m15 17.586 6.293-6.293a1 1 0 0 1 1.414 1.414l-7 7a1 1 0 0 1-1.414 0l-7-7a1 1 0 1 1 1.414-1.414L15 17.586Z" fill="#000"/><mask id="a" style="mask-type:alpha" maskUnits="userSpaceOnUse" x="7" y="11" width="16" height="9"><path d="m15 17.586 6.293-6.293a1 1 0 0 1 1.414 1.414l-7 7a1 1 0 0 1-1.414 0l-7-7a1 1 0 1 1 1.414-1.414L15 17.586Z" fill="#fff"/></mask><g mask="url(#a)"><path fill="#0880AE" d="M0 0h30v30H0z"/></g></svg>