<svg width="24" height="24" fill="none" xmlns="http://www.w3.org/2000/svg"><path d="M18.634 6.634a.8.8 0 0 1 1.132 1.132l-9.6 9.6a.8.8 0 0 1-1.132 0l-4-4a.8.8 0 0 1 1.132-1.132L9.6 15.67l9.034-9.035Z" fill="#000"/><mask id="a" style="mask-type:alpha" maskUnits="userSpaceOnUse" x="4" y="6" width="16" height="12"><path d="M18.634 6.634a.8.8 0 0 1 1.132 1.132l-9.6 9.6a.8.8 0 0 1-1.132 0l-4-4a.8.8 0 0 1 1.132-1.132L9.6 15.67l9.034-9.035Z" fill="#fff"/></mask><g mask="url(#a)"><path fill="#0880AE" d="M0 0h24v24H0z"/></g></svg>